<svg viewBox="0 0 24 24" x="0" y="0" fill="none" xmlns="http://www.w3.org/2000/svg"><g id="vector_2" xmlns="http://www.w3.org/2000/svg">
<path id="Vector_3" d="M5.319,14.504l-0.835,3.118l-3.054,0.065c-0.912,-1.693 -1.43,-3.629 -1.43,-5.687c0,-1.99 0.484,-3.866 1.342,-5.519v0l2.719,0.499l1.191,2.702c-0.25,0.726 -0.385,1.506 -0.385,2.318c0,0.881 0.159,1.725 0.452,2.504z" fill="#FBBB00"/>
<path id="Vector_4" d="M23.79,9.758c0.138,0.726 0.21,1.476 0.21,2.242c0,0.859 -0.09,1.697 -0.262,2.506c-0.584,2.75 -2.111,5.152 -4.225,6.852l-0.001,-0.001l-3.424,-0.174l-0.485,-3.025c1.404,-0.823 2.5,-2.111 3.078,-3.652h-6.417v-4.748z" fill="#518EF8"/>
<path id="Vector_5" d="M19.512,21.357l0.001,0.001c-2.057,1.653 -4.669,2.642 -7.513,2.642c-4.57,0 -8.543,-2.554 -10.57,-6.313l3.889,-3.184c1.013,2.705 3.622,4.63 6.681,4.63c1.315,0 2.546,-0.355 3.603,-0.976z" fill="#28B446"/>
<path id="Vector_6" d="M19.66,2.763l-3.888,3.182c-1.094,-0.683 -2.387,-1.078 -3.772,-1.078c-3.128,0 -5.786,2.013 -6.748,4.815l-3.91,-3.201v0c1.997,-3.85 6.02,-6.481 10.658,-6.481c2.912,0 5.581,1.037 7.66,2.763z" fill="#F14336"/>
</g></svg>